<svg xmlns="http://www.w3.org/2000/svg" width="20" height="20"><rect id="backgroundrect" width="100%" height="100%" x="0" y="0" fill="none" stroke="none"/><g class="currentLayer" style=""><title>Layer 1</title><path class="heroicon-ui" d="M4.3,10.285856801254074 l10,-10 a1,1 0 0 1 1.4,0 l4,4 a1,1 0 0 1 0,1.4 l-10,10 a1,1 0 0 1 -0.7000000000000002,0.3000000000000001 H5 a1,1 0 0 1 -1,-1 v-4 a1,1 0 0 1 0.3000000000000001,-0.7000000000000002 zM6,13.985856801254073 h2.59 l9,-9 L15,2.395856801254073 l-9,9 V13.985856801254073 zm10,-2 a1,1 0 0 1 2,0 v6 a2,2 0 0 1 -2,2 H2 a2,2 0 0 1 -2,-2 V3.985856801254073 c0,-1.1 0.9,-2 2,-2 h6 a1,1 0 0 1 0,2 H2 v14 h14 v-6 z" id="svg_1" fill="#1251a4" fill-opacity="1"/></g></svg>