<svg xmlns="http://www.w3.org/2000/svg" width="24" height="24" style=""><rect id="backgroundrect" width="100%" height="100%" x="0" y="0" fill="none" stroke="none"/><g class="currentLayer" style=""><title>Layer 1</title><path class="heroicon-ui selected" d="M8 6V4c0-1.1.9-2 2-2h4a2 2 0 0 1 2 2v2h5a1 1 0 0 1 0 2h-1v12a2 2 0 0 1-2 2H6a2 2 0 0 1-2-2V8H3a1 1 0 1 1 0-2h5zM6 8v12h12V8H6zm8-2V4h-4v2h4zm-4 4a1 1 0 0 1 1 1v6a1 1 0 0 1-2 0v-6a1 1 0 0 1 1-1zm4 0a1 1 0 0 1 1 1v6a1 1 0 0 1-2 0v-6a1 1 0 0 1 1-1z" id="svg_1" fill="#ed1c24" fill-opacity="1"/></g></svg>